<svg width="130" height="163" viewBox="0 0 130 163" fill="none" xmlns="http://www.w3.org/2000/svg">
<path d="M105.668 2H24.0605C11.8768 2 2 11.8758 2 24.0583V139.415C2 151.597 11.8768 161.473 24.0605 161.473H105.668C117.852 161.473 127.728 151.597 127.728 139.415V24.0583C127.728 11.8758 117.852 2 105.668 2Z" stroke="white" stroke-width="3" stroke-linecap="round" stroke-linejoin="round"/>
<path d="M66.2728 96.1677C80.3611 96.1677 91.7819 84.7659 91.7819 70.7011C91.7819 56.6363 80.3611 45.2345 66.2728 45.2345C52.1845 45.2345 40.7637 56.6363 40.7637 70.7011C40.7637 84.7659 52.1845 96.1677 66.2728 96.1677Z" stroke="white" stroke-width="3" stroke-miterlimit="10" stroke-linecap="round"/>
<path d="M108.875 145.284V120.104C108.873 116.257 107.342 112.568 104.621 109.849C101.9 107.129 98.2097 105.602 94.3625 105.602H36.5022C32.656 105.602 28.9673 107.13 26.2476 109.849C23.5279 112.569 22 116.258 22 120.104V144.041" stroke="white" stroke-width="3" stroke-miterlimit="10" stroke-linecap="round"/>
</svg>
