<svg width="121" height="121" viewBox="0 0 121 121" fill="none" xmlns="http://www.w3.org/2000/svg">
<path fill-rule="evenodd" clip-rule="evenodd" d="M60.5 3.5C29.0198 3.5 3.5 29.0198 3.5 60.5C3.5 91.9802 29.0198 117.5 60.5 117.5C91.9802 117.5 117.5 91.9802 117.5 60.5C117.5 29.0198 91.9802 3.5 60.5 3.5ZM0.5 60.5C0.5 27.3629 27.3629 0.5 60.5 0.5C93.6371 0.5 120.5 27.3629 120.5 60.5C120.5 93.6371 93.6371 120.5 60.5 120.5C27.3629 120.5 0.5 93.6371 0.5 60.5Z" fill="white"/>
<path fill-rule="evenodd" clip-rule="evenodd" d="M59 101.308V19.6907H62V101.308H59Z" fill="white"/>
<path fill-rule="evenodd" clip-rule="evenodd" d="M19.6914 59H101.309V62H19.6914V59Z" fill="white"/>
</svg>
