<svg width="73" height="73" viewBox="0 0 73 73" fill="none" xmlns="http://www.w3.org/2000/svg">
<path fill-rule="evenodd" clip-rule="evenodd" d="M36.4641 2.7523C17.6665 2.7523 2.42809 17.9907 2.42809 36.7883C2.42809 55.5858 17.6665 70.8242 36.4641 70.8242C55.2616 70.8242 70.5 55.5858 70.5 36.7883C70.5 17.9907 55.2616 2.7523 36.4641 2.7523ZM0.636719 36.7883C0.636719 17.0014 16.6772 0.960938 36.4641 0.960938C56.2509 0.960938 72.2914 17.0014 72.2914 36.7883C72.2914 56.5752 56.2509 72.6156 36.4641 72.6156C16.6772 72.6156 0.636719 56.5752 0.636719 36.7883Z" fill="white"/>
<path fill-rule="evenodd" clip-rule="evenodd" d="M35.5684 61.1556V12.4199H37.3597V61.1556H35.5684Z" fill="white"/>
<path fill-rule="evenodd" clip-rule="evenodd" d="M12.0967 35.8926H60.8323V37.6839H12.0967V35.8926Z" fill="white"/>
</svg>
