<svg width="32" height="40" viewBox="0 0 32 40" fill="none" xmlns="http://www.w3.org/2000/svg">
<path d="M31 16.6527C30.7068 14.5055 30.0951 12.4141 29.185 10.4474C26.5522 4.8007 21.6323 1 15.9967 1C10.361 1 5.43894 4.78961 2.80616 10.4474C1.90597 12.3978 1.29741 14.4699 1 16.5973L16.0011 32.2477L30.9911 16.5995" stroke="white" stroke-width="2" stroke-linecap="round" stroke-linejoin="round"/>
<path d="M16.001 38.7804C17.8076 38.7804 19.2721 37.3159 19.2721 35.5093C19.2721 33.7028 17.8076 32.2383 16.001 32.2383C14.1945 32.2383 12.73 33.7028 12.73 35.5093C12.73 37.3159 14.1945 38.7804 16.001 38.7804Z" stroke="white" stroke-width="2" stroke-miterlimit="10" stroke-linecap="round"/>
<path d="M31 16.6522C30.4615 17.3171 24.2762 17.942 15.9945 17.942C7.71271 17.942 1.5895 17.2262 1 16.5791" stroke="white" stroke-width="2" stroke-linecap="round" stroke-linejoin="round"/>
<path d="M16.001 32.2367V17.9492" stroke="white" stroke-width="2" stroke-linecap="round" stroke-linejoin="round"/>
</svg>
