<svg width="124" height="165" viewBox="0 0 124 165" fill="none" xmlns="http://www.w3.org/2000/svg">
<path d="M3.104 62.148C6.34327 53.4395 13.2635 47.3878 21.2881 47.3878C24.0856 47.3878 26.7359 48.1258 29.0917 49.4542L29.6071 49.8232C34.0243 43.6977 41.239 39.7124 49.3371 39.7124C54.4169 39.7124 59.2022 41.2623 63.104 43.9929L63.6193 44.4357C67.0058 39.86 73.4844 38.1626 80.331 39.4172C85.9997 40.4504 90.6377 43.7715 92.92 47.9782L93.0672 48.1996C96.6746 44.8785 102.564 43.3287 108.527 44.7309C117.362 46.7235 123.178 54.1775 121.558 61.3362" stroke="white" stroke-width="3.432" stroke-miterlimit="10"/>
<path d="M92.9945 47.3878L66.6387 129.307" stroke="white" stroke-width="3"/>
<path d="M63.251 47.9044V43.6977V47.9044Z" stroke="white" stroke-width="3"/>
<path d="M57.1415 129.307L29.5342 48.4948" stroke="white" stroke-width="3"/>
<path d="M72.454 129.455L122 61.779C121.779 28.716 94.9816 2 62 2C29.0184 2 2.22086 28.716 2 61.779L51.546 129.381" stroke="white" stroke-width="3"/>
<path d="M62.2207 129.307L63.2514 43.6977" stroke="white" stroke-width="3" stroke-miterlimit="10"/>
<path d="M72.0123 163.034H53.5338C49.2638 163.034 45.8037 159.566 45.8037 155.285V136.687C45.8037 132.407 49.2638 128.938 53.5338 128.938H72.0123C76.2822 128.938 79.7424 132.407 79.7424 136.687V155.211C79.7424 159.566 76.2822 163.034 72.0123 163.034Z" stroke="white" stroke-width="3.432" stroke-miterlimit="10"/>
</svg>
