<svg width="274" height="42" viewBox="0 0 274 42" fill="none" xmlns="http://www.w3.org/2000/svg">
<path d="M35.7904 27.2346L22.7918 40.2332C20.9348 42.0902 17.9283 42.0902 16.0714 40.2332L1.39271 25.4661C-0.464236 23.6092 -0.464236 20.6027 1.39271 18.7458L16.1598 3.97864C18.0168 2.1217 21.0232 2.1217 22.8802 3.97864L35.8788 16.9772C37.7357 18.8342 40.7422 18.8342 42.5992 16.9772L55.5093 3.97864C57.3663 2.1217 60.3728 2.1217 62.2297 3.97864L76.9084 18.7458C78.7653 20.6027 78.7653 23.6092 76.9084 25.4661L62.2297 40.2332C60.3728 42.0902 57.3663 42.0902 55.5093 40.2332L42.5107 27.2346C40.6538 25.3777 37.6473 25.3777 35.7904 27.2346Z" fill="white"/>
<path d="M108.034 40.9406V0.618446H115.462C116.965 0.618446 117.938 1.32585 118.38 2.65224L118.999 4.86289C119.706 4.15548 120.414 3.5365 121.121 2.91752C121.829 2.29854 122.624 1.85641 123.509 1.41428C124.393 0.972149 125.277 0.618446 126.25 0.441594C127.223 0.176316 128.284 0.0878906 129.433 0.0878906C131.909 0.0878906 133.855 0.706872 135.446 1.94483C137.038 3.1828 138.276 4.86289 139.072 6.98511C139.779 5.74715 140.575 4.68604 141.548 3.80178C142.52 2.91752 143.581 2.21011 144.731 1.67956C145.88 1.149 147.03 0.706872 148.268 0.441594C149.506 0.176316 150.744 0.0878906 151.982 0.0878906C154.281 0.0878906 156.315 0.441594 158.172 1.149C159.94 1.85641 161.443 2.82909 162.681 4.15548C163.919 5.48187 164.804 7.07353 165.423 9.0189C166.042 10.9643 166.395 13.0865 166.395 15.474V41.1175H154.369V15.474C154.369 11.318 152.601 9.19575 148.975 9.19575C147.384 9.19575 145.969 9.72631 144.908 10.7874C143.847 11.8485 143.316 13.4402 143.316 15.474V41.1175H131.29V15.474C131.29 13.1749 130.848 11.5833 129.964 10.6106C129.08 9.63788 127.753 9.19575 125.985 9.19575C124.924 9.19575 123.862 9.46103 122.89 9.90316C121.917 10.4337 121.033 11.0527 120.149 11.8485V41.0291H108.034V40.9406Z" fill="white"/>
<path d="M171.524 0.618258H181.162C182.046 0.618258 182.754 0.79511 183.284 1.23724C183.903 1.67937 184.257 2.1215 184.434 2.74048L188.501 20.8678C188.855 22.2826 189.12 23.609 189.386 24.8469C189.651 26.1733 189.828 27.4113 190.093 28.7377C190.447 27.4997 190.801 26.1733 191.243 24.8469C191.596 23.5206 192.038 22.1942 192.481 20.8678L197.521 2.65205C197.698 2.03307 198.14 1.59094 198.67 1.14881C199.201 0.706684 199.908 0.529832 200.704 0.529832H206.098C206.982 0.529832 207.69 0.706684 208.22 1.14881C208.839 1.59094 209.193 2.03307 209.37 2.65205L214.233 20.7794C214.587 22.1942 215.029 23.5206 215.383 24.7585C215.737 26.0849 216.09 27.3229 216.444 28.6493C216.621 27.3229 216.886 26.0849 217.151 24.7585C217.417 23.4321 217.77 22.1057 218.124 20.6909L222.369 2.56363C222.545 1.94465 222.988 1.50252 223.518 1.06039C224.049 0.618258 224.756 0.441406 225.552 0.441406H234.748L222.192 40.7636H212.376C211.846 40.7636 211.404 40.5868 211.05 40.3215C210.696 39.9678 210.431 39.5256 210.166 38.7298L204.418 18.6571C204.153 17.7729 203.888 16.8886 203.622 16.0044C203.445 15.1201 203.18 14.2358 203.003 13.3516C202.826 14.2358 202.65 15.1201 202.384 16.0928C202.207 16.977 201.942 17.8613 201.588 18.834L195.929 38.9067C195.576 40.233 194.691 40.9405 193.365 40.9405H183.992L171.524 0.618258Z" fill="white"/>
<path d="M269.499 10.169C269.146 10.6111 268.792 10.9648 268.438 11.2301C268.085 11.4954 267.643 11.5838 267.024 11.5838C266.405 11.5838 265.874 11.4069 265.432 11.1417C264.99 10.8764 264.371 10.5227 263.84 10.169C263.221 9.81527 262.514 9.46157 261.718 9.19629C260.922 8.93101 259.949 8.75416 258.712 8.75416C257.208 8.75416 255.97 9.01944 254.909 9.54999C253.848 10.0805 252.964 10.8764 252.256 11.8491C251.549 12.8218 251.018 14.0597 250.665 15.563C250.311 17.0662 250.134 18.6579 250.134 20.5148C250.134 24.4055 250.842 27.3236 252.345 29.4458C253.848 31.4796 255.882 32.5407 258.535 32.5407C259.949 32.5407 261.011 32.3639 261.895 32.0102C262.691 31.6565 263.398 31.3028 264.017 30.8606C264.548 30.4185 265.078 30.0648 265.609 29.7111C266.051 29.3574 266.67 29.1805 267.377 29.1805C268.35 29.1805 269.057 29.5342 269.588 30.2416L273.125 34.5745C271.887 35.9893 270.561 37.1389 269.234 38.0231C267.819 38.9074 266.493 39.6148 264.99 40.1453C263.575 40.6759 262.072 41.0296 260.657 41.2065C259.242 41.3833 257.827 41.4717 256.412 41.4717C253.937 41.4717 251.637 41.0296 249.338 40.0569C247.128 39.0842 245.094 37.7578 243.414 35.9893C241.734 34.2208 240.407 32.0102 239.346 29.4458C238.374 26.8815 237.843 23.875 237.843 20.6032C237.843 17.6852 238.285 14.944 239.169 12.468C240.054 9.9037 241.292 7.78148 243.06 5.92453C244.74 4.06759 246.862 2.65278 249.338 1.59167C251.814 0.530555 254.732 0 258.004 0C261.187 0 263.929 0.530555 266.316 1.50324C268.704 2.47592 270.826 3.97916 272.771 5.92453L269.499 10.169Z" fill="white"/>
</svg>
