<svg width="102" height="116" viewBox="0 0 102 116" fill="none" xmlns="http://www.w3.org/2000/svg">
<path d="M89.9778 29.5943L56.2717 10.1055" stroke="white" stroke-width="2" stroke-miterlimit="10" stroke-linecap="round" stroke-linejoin="round"/>
<path d="M94.9294 77.1183V39.179" stroke="white" stroke-width="2" stroke-miterlimit="10" stroke-linecap="round" stroke-linejoin="round"/>
<path d="M45.7288 105.473L12.9014 86.5432" stroke="white" stroke-width="2" stroke-miterlimit="10" stroke-linecap="round" stroke-linejoin="round"/>
<path d="M7.07007 78.7158V38.54" stroke="white" stroke-width="2" stroke-miterlimit="10" stroke-linecap="round" stroke-linejoin="round"/>
<path d="M89.6583 86.2236L56.2717 105.473" stroke="white" stroke-width="2" stroke-miterlimit="10" stroke-linecap="round" stroke-linejoin="round"/>
<path d="M45.7286 10.1055L12.342 29.4345" stroke="white" stroke-width="2" stroke-miterlimit="10" stroke-linecap="round" stroke-linejoin="round"/>
<path d="M7.07029 38.54C10.4228 38.54 13.1406 35.8222 13.1406 32.4697C13.1406 29.1172 10.4228 26.3994 7.07029 26.3994C3.71776 26.3994 1 29.1172 1 32.4697C1 35.8222 3.71776 38.54 7.07029 38.54Z" stroke="white" stroke-width="2" stroke-miterlimit="10" stroke-linecap="round" stroke-linejoin="round"/>
<path d="M7.07029 90.8564C10.4228 90.8564 13.1406 88.1386 13.1406 84.7861C13.1406 81.4336 10.4228 78.7158 7.07029 78.7158C3.71776 78.7158 1 81.4336 1 84.7861C1 88.1386 3.71776 90.8564 7.07029 90.8564Z" stroke="white" stroke-width="2" stroke-miterlimit="10" stroke-linecap="round" stroke-linejoin="round"/>
<path d="M51 114.658C54.3525 114.658 57.0703 111.94 57.0703 108.588C57.0703 105.235 54.3525 102.518 51 102.518C47.6474 102.518 44.9297 105.235 44.9297 108.588C44.9297 111.94 47.6474 114.658 51 114.658Z" stroke="white" stroke-width="2" stroke-miterlimit="10" stroke-linecap="round" stroke-linejoin="round"/>
<path d="M94.9297 89.2587C98.2822 89.2587 101 86.541 101 83.1885C101 79.8359 98.2822 77.1182 94.9297 77.1182C91.5771 77.1182 88.8594 79.8359 88.8594 83.1885C88.8594 86.541 91.5771 89.2587 94.9297 89.2587Z" stroke="white" stroke-width="2" stroke-miterlimit="10" stroke-linecap="round" stroke-linejoin="round"/>
<path d="M94.9297 39.1789C98.2822 39.1789 101 36.4611 101 33.1086C101 29.7561 98.2822 27.0383 94.9297 27.0383C91.5771 27.0383 88.8594 29.7561 88.8594 33.1086C88.8594 36.4611 91.5771 39.1789 94.9297 39.1789Z" stroke="white" stroke-width="2" stroke-miterlimit="10" stroke-linecap="round" stroke-linejoin="round"/>
<path d="M51 13.1406C54.3525 13.1406 57.0703 10.4228 57.0703 7.07029C57.0703 3.71776 54.3525 1 51 1C47.6474 1 44.9297 3.71776 44.9297 7.07029C44.9297 10.4228 47.6474 13.1406 51 13.1406Z" stroke="white" stroke-width="2" stroke-miterlimit="10" stroke-linecap="round" stroke-linejoin="round"/>
<path d="M34.7063 48.604V67.0545L51.0002 76.2398L67.2942 67.0545V48.604L51.0002 39.4187L34.7063 48.604Z" stroke="white" stroke-width="2" stroke-miterlimit="10" stroke-linecap="round" stroke-linejoin="round"/>
<path d="M34.7063 48.6037L12.342 35.5046" stroke="white" stroke-width="2" stroke-miterlimit="10" stroke-linecap="round" stroke-linejoin="round"/>
<path d="M89.6582 36.0637L67.2939 48.6037" stroke="white" stroke-width="2" stroke-miterlimit="10" stroke-linecap="round" stroke-linejoin="round"/>
<path d="M50.9998 102.438V76.2395" stroke="white" stroke-width="2" stroke-miterlimit="10" stroke-linecap="round" stroke-linejoin="round"/>
</svg>
