<svg width="102" height="102" viewBox="0 0 102 102" fill="none" xmlns="http://www.w3.org/2000/svg">
<path d="M51 101C78.6142 101 101 78.6142 101 51C101 23.3858 78.6142 1 51 1C23.3858 1 1 23.3858 1 51C1 78.6142 23.3858 101 51 101Z" stroke="white" stroke-width="2" stroke-linecap="round" stroke-linejoin="round"/>
<path d="M33.985 43.7473C37.2175 43.7473 39.8379 41.1269 39.8379 37.8944C39.8379 34.6619 37.2175 32.0415 33.985 32.0415C30.7525 32.0415 28.1321 34.6619 28.1321 37.8944C28.1321 41.1269 30.7525 43.7473 33.985 43.7473Z" stroke="white" stroke-width="2" stroke-linecap="round" stroke-linejoin="round"/>
<path d="M72.3229 53.2122C75.5554 53.2122 78.1758 50.5917 78.1758 47.3593C78.1758 44.1268 75.5554 41.5063 72.3229 41.5063C69.0904 41.5063 66.47 44.1268 66.47 47.3593C66.47 50.5917 69.0904 53.2122 72.3229 53.2122Z" stroke="white" stroke-width="2" stroke-linecap="round" stroke-linejoin="round"/>
<path d="M48.7877 79.6626C52.0202 79.6626 54.6407 77.0422 54.6407 73.8097C54.6407 70.5772 52.0202 67.9568 48.7877 67.9568C45.5553 67.9568 42.9348 70.5772 42.9348 73.8097C42.9348 77.0422 45.5553 79.6626 48.7877 79.6626Z" stroke="white" stroke-width="2" stroke-linecap="round" stroke-linejoin="round"/>
<path d="M68.9867 52.1677L52.7842 69.5306" stroke="white" stroke-width="2" stroke-linecap="round" stroke-linejoin="round"/>
<path d="M46.5538 68.392L36.2188 43.3049" stroke="white" stroke-width="2" stroke-linecap="round" stroke-linejoin="round"/>
<path d="M66.4771 46.9603L39.6277 39.4683" stroke="white" stroke-width="2" stroke-linecap="round" stroke-linejoin="round"/>
</svg>
