<?xml version="1.0" standalone="no"?>
<!DOCTYPE svg PUBLIC "-//W3C//DTD SVG 20010904//EN"
 "http://www.w3.org/TR/2001/REC-SVG-20010904/DTD/svg10.dtd">
<svg version="1.0" xmlns="http://www.w3.org/2000/svg"
 width="225.000000pt" height="225.000000pt" viewBox="0 0 225.000000 225.000000"
 preserveAspectRatio="xMidYMid meet">

<g transform="translate(0.000000,225.000000) scale(0.100000,-0.100000)"
fill="#ffffff" stroke="none">
<path d="M483 2232 c-98 -35 -169 -99 -218 -196 -23 -46 -25 -61 -25 -183 0
-121 2 -133 19 -143 11 -5 81 -10 156 -10 l137 0 29 -29 c21 -22 29 -39 29
-66 0 -87 -36 -105 -213 -105 -103 0 -137 -3 -146 -14 -8 -9 -11 -55 -9 -137
l3 -124 153 -5 154 -5 29 -33 c22 -24 29 -42 29 -72 0 -30 -7 -48 -29 -72
l-29 -33 -154 -5 -153 -5 -3 -109 c-2 -71 1 -113 9 -122 9 -11 43 -14 146 -14
177 0 213 -18 213 -105 0 -27 -8 -44 -29 -66 l-29 -29 -137 0 c-75 0 -145 -5
-156 -10 -17 -10 -19 -22 -19 -143 0 -125 2 -137 27 -188 36 -71 110 -144 181
-177 l57 -27 680 0 c678 0 680 0 727 22 67 31 143 105 178 176 l30 60 0 862 0
862 -30 60 c-35 71 -111 145 -178 176 -47 22 -52 22 -712 24 -620 2 -669 1
-717 -15z m1415 -70 c56 -30 115 -91 141 -147 21 -44 21 -52 21 -887 l0 -843
-24 -51 c-28 -60 -80 -115 -139 -146 l-42 -23 -670 0 -670 0 -48 25 c-58 29
-121 95 -148 153 -14 32 -19 65 -19 145 l0 102 126 0 c146 0 181 11 221 71 22
33 25 47 21 99 -4 49 -10 66 -34 91 -46 50 -80 59 -214 59 l-120 0 0 64 0 64
134 4 c149 3 167 10 214 79 33 48 28 141 -10 191 -43 57 -79 68 -217 68 l-121
0 0 80 0 80 120 0 c134 0 168 9 214 59 24 25 30 42 34 91 4 52 1 66 -21 99
-40 60 -75 71 -221 71 l-126 0 0 103 c0 81 5 111 21 147 33 74 99 133 184 167
22 9 199 11 690 10 l660 -2 43 -23z"/>
<path d="M1144 1561 c-59 -27 -96 -80 -101 -144 -3 -29 -11 -67 -19 -84 -18
-40 -10 -94 17 -119 10 -9 19 -29 19 -43 0 -14 9 -37 20 -51 11 -14 20 -31 20
-38 0 -7 -53 -38 -117 -68 -64 -30 -132 -66 -150 -80 l-34 -25 3 -117 3 -117
410 -3 c226 -1 420 0 433 3 21 5 22 10 22 113 0 77 -4 113 -14 128 -8 11 -78
49 -155 84 -151 70 -159 79 -121 127 11 14 20 35 20 45 0 11 11 33 25 50 29
34 33 82 9 116 -8 12 -13 31 -9 42 17 53 -46 159 -112 186 -45 19 -121 17
-169 -5z m155 -55 c45 -24 65 -63 63 -127 -1 -40 3 -61 13 -69 21 -18 19 -47
-5 -60 -11 -6 -20 -21 -20 -34 0 -13 -11 -40 -25 -60 -17 -26 -25 -50 -25 -82
l0 -44 155 -75 155 -74 0 -75 0 -76 -375 0 -375 0 0 78 0 79 143 68 c78 37
145 73 149 79 13 19 9 81 -7 102 -8 10 -20 37 -26 59 -6 22 -20 48 -30 58 -23
21 -24 40 -4 57 10 8 15 31 15 70 0 49 4 64 27 90 14 18 36 36 47 40 33 14 94
11 125 -4z"/>
<path d="M175 1678 c-51 -27 -62 -98 -22 -136 22 -21 32 -22 210 -22 173 0
188 1 207 20 42 42 32 111 -20 137 -32 16 -346 17 -375 1z m355 -63 c25 -30 0
-35 -171 -35 -160 0 -169 1 -169 19 0 11 6 22 13 24 6 3 80 6 163 6 121 1 154
-2 164 -14z"/>
<path d="M175 1179 c-30 -17 -45 -40 -45 -70 0 -79 27 -89 240 -89 l172 0 30
30 c25 26 29 36 24 63 -4 18 -15 41 -26 52 -19 18 -36 20 -198 23 -117 1 -184
-2 -197 -9z m355 -64 c25 -30 0 -35 -171 -35 -157 0 -169 1 -169 18 0 10 3 22
7 25 3 4 77 7 163 7 126 0 160 -3 170 -15z"/>
<path d="M152 707 c-13 -14 -22 -36 -22 -54 0 -83 26 -93 232 -93 178 0 204 6
226 54 16 32 9 69 -18 96 -19 19 -34 20 -208 20 -184 0 -189 -1 -210 -23z
m383 -47 c4 -6 1 -17 -5 -25 -10 -12 -43 -15 -160 -15 -82 0 -155 3 -164 6 -9
3 -16 15 -16 25 0 18 10 19 169 19 107 0 172 -4 176 -10z"/>
</g>
</svg>
