<svg width="56" height="56" viewBox="0 0 56 56" fill="none" xmlns="http://www.w3.org/2000/svg">
<path d="M26.0801 34.916V33.9668C26.0801 32.5957 26.291 31.4707 26.7129 30.5918C27.1348 29.7012 27.9199 28.7637 29.0684 27.7793C30.6621 26.4316 31.6641 25.418 32.0742 24.7383C32.4961 24.0586 32.707 23.2383 32.707 22.2773C32.707 21.082 32.3203 20.1621 31.5469 19.5176C30.7852 18.8613 29.6836 18.5332 28.2422 18.5332C27.3164 18.5332 26.4141 18.6445 25.5352 18.8672C24.6562 19.0781 23.6484 19.4707 22.5117 20.0449L21.4746 17.6719C23.6895 16.5117 26.0039 15.9316 28.418 15.9316C30.6562 15.9316 32.3965 16.4824 33.6387 17.584C34.8809 18.6855 35.502 20.2383 35.502 22.2422C35.502 23.0977 35.3848 23.8535 35.1504 24.5098C34.9277 25.1543 34.5938 25.7695 34.1484 26.3555C33.7031 26.9297 32.7422 27.8613 31.2656 29.1504C30.082 30.1582 29.2969 30.9961 28.9102 31.6641C28.5352 32.332 28.3477 33.2227 28.3477 34.3359V34.916H26.0801ZM25.2188 40.1367C25.2188 38.543 25.9219 37.7461 27.3281 37.7461C28.0078 37.7461 28.5293 37.9512 28.8926 38.3613C29.2676 38.7715 29.4551 39.3633 29.4551 40.1367C29.4551 40.8867 29.2676 41.4727 28.8926 41.8945C28.5176 42.3047 27.9961 42.5098 27.3281 42.5098C26.7188 42.5098 26.2148 42.3281 25.8164 41.9648C25.418 41.5898 25.2188 40.9805 25.2188 40.1367Z" fill="white"/>
<circle cx="28" cy="28" r="26.5" stroke="white" stroke-width="3"/>
</svg>
