<svg width="109" height="149" viewBox="0 0 109 149" fill="none" xmlns="http://www.w3.org/2000/svg">
<path d="M104.221 70.6597L87.7201 87.1603C83.1888 91.6915 75.7508 91.6915 71.2195 87.1603C66.6883 82.629 66.6883 75.191 71.2195 70.6597L87.7201 54.1592C92.2513 49.6279 99.6894 49.6279 104.221 54.1592C108.752 58.6904 108.752 66.1285 104.221 70.6597Z" stroke="white" stroke-width="2" stroke-miterlimit="10" stroke-linecap="round" stroke-linejoin="round"/>
<path d="M60.5326 48.3454L71.2195 37.6585C71.7324 37.1456 72.2454 36.7181 72.8439 36.2906C77.3751 33.1273 83.7018 33.6403 87.72 37.6585C90.0284 39.9669 91.1398 42.9592 91.1398 45.8661C91.1398 48.8584 90.0284 51.8507 87.72 54.1591L71.2195 70.5742C66.6882 75.1054 59.2502 75.1054 54.7189 70.5742C52.7525 68.6078 51.6411 66.0429 51.3846 63.4781" stroke="white" stroke-width="2" stroke-miterlimit="10" stroke-linecap="round" stroke-linejoin="round"/>
<path d="M60.618 48.7715L71.4759 37.9136C71.9888 37.4006 72.4163 36.8877 72.8438 36.2892C74.2117 34.3228 74.8957 32.0145 74.8957 29.6206C74.8957 26.6283 73.7842 23.6359 71.4759 21.3276C67.4576 17.3948 61.3874 16.8818 56.8562 19.7887C56.1722 20.2161 55.5738 20.7291 54.9753 21.3276L41.0396 35.3488" stroke="white" stroke-width="2" stroke-miterlimit="10" stroke-linecap="round" stroke-linejoin="round"/>
<path d="M41.5527 35.5201L55.3174 21.7554C55.9158 21.157 56.4288 20.5585 56.8563 19.8745C58.1387 17.9082 58.7372 15.6853 58.7372 13.4624C58.7372 10.4701 57.6257 7.47775 55.3174 5.25488C50.7861 0.723635 43.3481 0.723635 38.8168 5.25488L22.3163 21.6699C20.0079 23.9783 18.8965 26.9706 18.8965 29.963C18.8965 31.3309 19.153 32.6988 19.6659 33.9812C20.3499 33.2973 21.1193 32.9553 21.8888 32.5278C23.7697 31.3309 25.9926 30.6469 28.2154 30.6469C29.8398 30.6469 31.4642 30.9889 33.0887 31.6729L41.0397 35.3491L41.5527 35.5201ZM41.5527 35.5201L54.2914 41.4193C57.3693 42.7872 59.5066 45.3521 60.5326 48.3444C60.6181 48.5154 60.6181 48.6009 60.7036 48.7719C61.473 51.3367 61.302 54.2436 60.1051 56.8939C58.4807 60.4847 55.1464 62.8786 51.4701 63.5625C50.7861 63.648 50.1877 63.7335 49.5037 63.7335C47.8793 63.7335 46.2549 63.3915 44.6305 62.7076L31.3788 56.5519" stroke="white" stroke-width="2" stroke-miterlimit="10" stroke-linecap="round" stroke-linejoin="round"/>
<path d="M6.0722 51.0814L17.956 35.7778C18.469 35.0939 19.7514 33.9824 19.6659 33.9824" stroke="white" stroke-width="2" stroke-miterlimit="10" stroke-linecap="round" stroke-linejoin="round"/>
<path d="M31.3787 56.5537L22.1453 68.4375C20.1789 71.0024 17.2721 72.7123 14.1942 73.2253" stroke="white" stroke-width="2" stroke-miterlimit="10" stroke-linecap="round" stroke-linejoin="round"/>
<path d="M94.2177 80.6618C91.8238 92.0327 86.6941 100.839 77.7171 107.678V138.286C77.7171 143.33 72.5019 147.348 66.0898 147.348H43.2626C36.8505 147.348 31.5498 143.244 31.5498 138.286V116.741C31.3788 116.484 31.2078 116.228 31.0368 115.886L3.59289 68.3505L2.56695 66.6406C2.39596 66.2986 2.13947 65.8712 1.96848 65.5292V65.4437C-0.254389 60.3995 2.65244 55.4408 6.07225 51.166" stroke="white" stroke-width="2" stroke-miterlimit="10" stroke-linecap="round" stroke-linejoin="round"/>
<path d="M91.3961 51.6773C91.1397 50.9934 90.7977 50.3949 90.5412 49.7109" stroke="white" stroke-width="2" stroke-miterlimit="10" stroke-linecap="round" stroke-linejoin="round"/>
<path d="M53.8641 23.2095C53.6932 23.2095 53.4367 23.124 53.2657 23.124" stroke="white" stroke-width="2" stroke-miterlimit="10" stroke-linecap="round" stroke-linejoin="round"/>
</svg>
