<svg width="33" height="44" viewBox="0 0 33 44" fill="none" xmlns="http://www.w3.org/2000/svg">
<path d="M31.042 20.3938L26.3908 25.0449C25.1136 26.3222 23.0169 26.3222 21.7397 25.0449C20.4624 23.7677 20.4624 21.671 21.7397 20.3938L26.3908 15.7426C27.6681 14.4654 29.7647 14.4654 31.042 15.7426C32.3193 17.0199 32.3193 19.1165 31.042 20.3938Z" stroke="white" stroke-width="2" stroke-miterlimit="10" stroke-linecap="round" stroke-linejoin="round"/>
<path d="M18.7275 14.1038L21.74 11.0914C21.8846 10.9468 22.0292 10.8263 22.1978 10.7058C23.4751 9.81413 25.2585 9.95872 26.3911 11.0914C27.0418 11.7421 27.3551 12.5855 27.3551 13.4049C27.3551 14.2484 27.0418 15.0919 26.3911 15.7426L21.74 20.3696C20.4627 21.6469 18.3661 21.6469 17.0888 20.3696C16.5345 19.8153 16.2212 19.0924 16.1489 18.3694" stroke="white" stroke-width="2" stroke-miterlimit="10" stroke-linecap="round" stroke-linejoin="round"/>
<path d="M18.7512 14.2247L21.8118 11.1641C21.9564 11.0195 22.0769 10.8749 22.1974 10.7062C22.5829 10.1519 22.7757 9.50127 22.7757 8.82649C22.7757 7.98301 22.4624 7.13953 21.8118 6.48885C20.6791 5.38029 18.9681 5.23569 17.6908 6.05507C17.498 6.17556 17.3293 6.32016 17.1606 6.48885L13.2324 10.4411" stroke="white" stroke-width="2" stroke-miterlimit="10" stroke-linecap="round" stroke-linejoin="round"/>
<path d="M13.377 10.4891L17.257 6.60911C17.4257 6.44041 17.5703 6.27172 17.6908 6.07893C18.0523 5.52464 18.221 4.89806 18.221 4.27148C18.221 3.428 17.9077 2.58453 17.257 1.95795C15.9798 0.680684 13.8831 0.680684 12.6059 1.95795L7.95469 6.58501C7.30401 7.23569 6.99072 8.07917 6.99072 8.92264C6.99072 9.30823 7.06302 9.69382 7.20762 10.0553C7.40041 9.86251 7.6173 9.76612 7.8342 9.64562C8.36438 9.30823 8.99096 9.11544 9.61754 9.11544C10.0754 9.11544 10.5333 9.21183 10.9912 9.40463L13.2324 10.4409L13.377 10.4891ZM13.377 10.4891L16.9678 12.1519C17.8354 12.5375 18.4379 13.2605 18.7271 14.104C18.7512 14.1522 18.7512 14.1763 18.7753 14.2245C18.9922 14.9475 18.944 15.7668 18.6066 16.5139C18.1487 17.5261 17.2088 18.2009 16.1726 18.3937C15.9798 18.4178 15.8111 18.4419 15.6183 18.4419C15.1604 18.4419 14.7025 18.3455 14.2446 18.1527L10.5092 16.4175" stroke="white" stroke-width="2" stroke-miterlimit="10" stroke-linecap="round" stroke-linejoin="round"/>
<path d="M3.37598 14.875L6.72578 10.5613C6.87037 10.3685 7.23186 10.0552 7.20776 10.0552" stroke="white" stroke-width="2" stroke-miterlimit="10" stroke-linecap="round" stroke-linejoin="round"/>
<path d="M10.5095 16.4175L7.90676 19.7673C7.35248 20.4903 6.5331 20.9722 5.66553 21.1168" stroke="white" stroke-width="2" stroke-miterlimit="10" stroke-linecap="round" stroke-linejoin="round"/>
<path d="M28.2224 23.2137C27.5477 26.4189 26.1017 28.9011 23.5713 30.829V39.4566C23.5713 40.8784 22.1012 42.0111 20.2938 42.0111H13.8593C12.0518 42.0111 10.5577 40.8543 10.5577 39.4566V33.3836C10.5095 33.3113 10.4613 33.239 10.4131 33.1426L2.67719 19.7434L2.388 19.2614C2.3398 19.165 2.2675 19.0445 2.2193 18.9481V18.924C1.59272 17.5021 2.4121 16.1044 3.37607 14.8994" stroke="white" stroke-width="2" stroke-miterlimit="10" stroke-linecap="round" stroke-linejoin="round"/>
<path d="M27.427 15.044C27.3547 14.8512 27.2583 14.6825 27.186 14.4897" stroke="white" stroke-width="2" stroke-miterlimit="10" stroke-linecap="round" stroke-linejoin="round"/>
<path d="M16.8474 7.01873C16.7992 7.01873 16.7269 6.99463 16.6787 6.99463" stroke="white" stroke-width="2" stroke-miterlimit="10" stroke-linecap="round" stroke-linejoin="round"/>
</svg>
