<?xml version="1.0" standalone="no"?>
<!DOCTYPE svg PUBLIC "-//W3C//DTD SVG 20010904//EN"
 "http://www.w3.org/TR/2001/REC-SVG-20010904/DTD/svg10.dtd">
<svg version="1.0" xmlns="http://www.w3.org/2000/svg"
 width="256.000000pt" height="256.000000pt" viewBox="0 0 256.000000 256.000000"
 preserveAspectRatio="xMidYMid meet">

<g transform="translate(0.000000,256.000000) scale(0.100000,-0.100000)"
fill="#ffffff" stroke="none">
<path d="M854 2461 c-23 -10 -54 -36 -70 -57 -28 -36 -29 -40 -29 -158 0 -119
0 -121 23 -124 43 -6 52 13 52 117 0 102 9 126 57 150 32 16 1192 16 1228 -1
57 -26 55 3 55 -888 0 -875 1 -864 -47 -886 -10 -4 -60 -11 -112 -14 -75 -4
-96 -9 -105 -23 -8 -12 -8 -22 0 -35 9 -13 28 -18 95 -20 130 -5 190 21 229
99 19 37 20 62 20 879 0 805 -1 842 -19 878 -23 46 -46 67 -94 87 -31 13 -119
15 -639 15 -567 0 -605 -2 -644 -19z"/>
<path d="M412 2019 c-26 -13 -55 -39 -70 -62 l-27 -41 -3 -844 -2 -845 21 -44
c13 -27 37 -55 62 -71 l41 -27 626 0 626 0 42 28 c23 15 51 45 62 67 20 38 20
56 20 880 0 824 0 842 -20 880 -11 22 -39 52 -62 67 l-42 28 -615 3 c-613 2
-616 2 -659 -19z m1284 -93 l34 -34 0 -832 0 -832 -34 -34 -34 -34 -602 0
-602 0 -34 34 -34 34 0 832 0 832 34 34 34 34 602 0 602 0 34 -34z"/>
</g>
</svg>
