<?xml version="1.0"?>
<svg xmlns="http://www.w3.org/2000/svg" xmlns:xlink="http://www.w3.org/1999/xlink" xmlns:svgjs="http://svgjs.com/svgjs" version="1.1" width="512" height="512" x="0" y="0" viewBox="0 0 48 48" style="enable-background:new 0 0 512 512" xml:space="preserve" class=""><g transform="matrix(1.5,0,0,1.5,-12.000000000000007,-12)"><g xmlns="http://www.w3.org/2000/svg"><circle cx="24" cy="22" r="2.25" fill="#000000" data-original="#000000"/><path d="m33 9.25h-18c-1.5166 0-2.75 1.2334-2.75 2.75v2.25h-2.25c-.41406 0-.75.33594-.75.75s.33594.75.75.75h5c.41406 0 .75.33594.75.75s-.33594.75-.75.75h-2.75v6h-2.25c-.41406 0-.75.33594-.75.75s.33594.75.75.75h5c.41406 0 .75.33594.75.75s-.33594.75-.75.75h-2.75v6h-2.25c-.41406 0-.75.33594-.75.75s.33594.75.75.75h5c.41406 0 .75.33594.75.75s-.33594.75-.75.75h-2.75v.75c0 1.5166 1.2334 2.75 2.75 2.75h18c1.5166 0 2.75-1.2334 2.75-2.75v-24c0-1.5166-1.2334-2.75-2.75-2.75zm-3.87793 20.67822c-.39694.06537-.79518-.21007-.8623-.61768-.34082-2.06298-2.13282-3.56054-4.26075-3.56054-2.12305 0-3.91406 1.49365-4.25977 3.55176-.06934.40869-.45703.67969-.86328.61572-.4082-.06836-.68457-.45508-.61523-.86377.32306-1.92645 1.58887-3.46814 3.27869-4.2467-.78369-.68781-1.28943-1.68476-1.28943-2.80701 0-2.06787 1.68262-3.75 3.75-3.75s3.75 1.68213 3.75 3.75c0 1.12231-.5058 2.11932-1.28961 2.80713 1.69348.78015 2.96002 2.32666 3.27985 4.25928.06738.40869-.20899.79443-.61817.86181z" fill="#000000" data-original="#000000"/><path d="m37.25 14.28003v5.96997h1.5v-4.25c0-.87-.65997-1.60999-1.5-1.71997z" fill="#000000" data-original="#000000"/><path d="m37.25 21.75h1.5v4.5h-1.5z" fill="#000000" data-original="#000000"/><path d="m37.25 33.71997c.84003-.10998 1.5-.84997 1.5-1.71997v-4.25h-1.5z" fill="#000000" data-original="#000000"/></g></g></svg>
