<?xml version="1.0"?>
<svg xmlns="http://www.w3.org/2000/svg" xmlns:xlink="http://www.w3.org/1999/xlink" xmlns:svgjs="http://svgjs.com/svgjs" version="1.1" width="512" height="512" x="0" y="0" viewBox="0 0 32 32" style="enable-background:new 0 0 512 512" xml:space="preserve" class=""><g><g xmlns="http://www.w3.org/2000/svg" id="list"><path d="m26 3h-20a3 3 0 0 0 -3 3v20a3 3 0 0 0 3 3h20a3 3 0 0 0 3-3v-20a3 3 0 0 0 -3-3zm-18 11h2a1 1 0 0 1 1 1v2a1 1 0 0 1 -1 1h-2a1 1 0 0 1 -1-1v-2a1 1 0 0 1 1-1zm-1-3v-2a1 1 0 0 1 1-1h2a1 1 0 0 1 1 1v2a1 1 0 0 1 -1 1h-2a1 1 0 0 1 -1-1zm1 9h2a1 1 0 0 1 1 1v2a1 1 0 0 1 -1 1h-2a1 1 0 0 1 -1-1v-2a1 1 0 0 1 1-1zm6 1h10a1 1 0 0 1 0 2h-10a1 1 0 0 1 0-2zm-1-5a1 1 0 0 1 1-1h10a1 1 0 0 1 0 2h-10a1 1 0 0 1 -1-1zm11-5h-10a1 1 0 0 1 0-2h10a1 1 0 0 1 0 2z" fill="#c2c2c2" data-original="#000000" class=""/></g></g></svg>
