<?xml version="1.0" encoding="iso-8859-1"?>
<!-- Generator: Adobe Illustrator 19.0.0, SVG Export Plug-In . SVG Version: 6.00 Build 0)  -->
<svg version="1.1" id="Capa_1" xmlns="http://www.w3.org/2000/svg" xmlns:xlink="http://www.w3.org/1999/xlink" x="0px" y="0px"
	 viewBox="0 0 512 512" style="enable-background:new 0 0 512 512;" xml:space="preserve">
<g>
	<g>
		<path d="M143.218,238.451c-12.554-15.322-30.41-24.917-49.849-27.012c2.593,19.57,6.401,39.8,10.327,60.659
			c2.417,12.833,4.849,25.797,7.09,38.922c1.963,11.572,11.602,19.98,22.91,19.98c12.589,0,20.292-9.012,23.815-21.757
			C163.423,287.843,157.548,255.919,143.218,238.451z"/>
	</g>
</g>
<g>
	<g>
		<path d="M330,166C330,75.019,255.981,0,165,0S0,75.019,0,166c0,41.719,7.764,82.925,15.264,122.769
			C22.5,327.279,30,367.094,30,406c0,57.891,47.109,106,105,106s105-48.109,105-106c0-7.075-0.718-14.18-2.124-21.138
			c-7.324-35.771,19.014-77.402,43.799-102.188C312.832,251.518,330,210.077,330,166z M239.253,240.253l-21.211-21.211
			c18.398-18.413,25.737-43.887,20.156-69.902c-6.065-28.213-30.322-51.577-58.989-56.836C130.71,83.546,90,120.703,90,166
			c0,4.995,0.146,10.034,0.425,15.132c29.619,1.45,57.085,15.22,75.996,38.291c37.101,45.269,19.471,94.519,19.438,98.818
			C180.908,343.012,158.965,361,133.696,361c-25.986,0-48.062-18.911-52.5-44.956c-2.183-12.935-4.585-25.723-6.973-38.364
			C66.899,238.803,60,202.108,60,166c0-65.131,59.053-115.27,124.614-103.198c40.913,7.485,74.238,39.653,82.91,80.039
			C275.186,178.466,264.609,214.882,239.253,240.253z"/>
	</g>
</g>
<g>
	<g>
		<rect x="361" y="241" width="151" height="30"/>
	</g>
</g>
<g>
	<g>
		
			<rect x="420.996" y="338.908" transform="matrix(0.4472 -0.8944 0.8944 0.4472 -122.112 614.3903)" width="29.999" height="134.156"/>
	</g>
</g>
<g>
	<g>
		
			<rect x="368.931" y="90.999" transform="matrix(0.8944 -0.4472 0.4472 0.8944 -1.3733 206.1798)" width="134.156" height="29.999"/>
	</g>
</g>
<g>
</g>
<g>
</g>
<g>
</g>
<g>
</g>
<g>
</g>
<g>
</g>
<g>
</g>
<g>
</g>
<g>
</g>
<g>
</g>
<g>
</g>
<g>
</g>
<g>
</g>
<g>
</g>
<g>
</g>
</svg>
