<svg id="Layer_2_1_" enable-background="new 0 0 32 32" height="512" viewBox="0 0 32 32" width="512" xmlns="http://www.w3.org/2000/svg"><g><path d="m1.94531 7.90579h28.10983c1.07262 0 1.94486-.87224 1.94486-1.94485s-.87224-1.94531-1.94485-1.94531h-28.10984c-1.07261 0-1.94531.8727-1.94531 1.94531s.8727 1.94485 1.94531 1.94485z"/><path d="m30.05515 14.05469h-28.10984c-1.07261 0-1.94531.8727-1.94531 1.94531s.8727 1.94485 1.94531 1.94485h28.10983c1.07262 0 1.94486-.87224 1.94486-1.94485s-.87224-1.94531-1.94485-1.94531z"/><path d="m30.05515 24.09375h-28.10984c-1.07261 0-1.94531.87316-1.94531 1.94577s.8727 1.94485 1.94531 1.94485h28.10983c1.07261 0 1.94485-.87224 1.94485-1.94485s-.87223-1.94577-1.94484-1.94577z"/></g></svg>