<svg width="32" height="32" viewBox="0 0 32 32" fill="none" xmlns="http://www.w3.org/2000/svg">
<path d="M16.0004 18.0893C18.8952 18.0893 21.242 15.7464 21.242 12.8564C21.242 9.96637 18.8952 7.62354 16.0004 7.62354C13.1055 7.62354 10.7588 9.96637 10.7588 12.8564C10.7588 15.7464 13.1055 18.0893 16.0004 18.0893Z" stroke="white" stroke-width="2" stroke-miterlimit="10" stroke-linecap="round"/>
<path d="M24.7544 28.1817V23.0077C24.7539 22.2172 24.4394 21.4593 23.8802 20.9005C23.321 20.3417 22.5629 20.0278 21.7723 20.0278H9.88323C9.09291 20.0278 8.33496 20.3418 7.77612 20.9006C7.21728 21.4595 6.90332 22.2174 6.90332 23.0077V27.9262" stroke="white" stroke-width="2" stroke-miterlimit="10" stroke-linecap="round"/>
<path d="M16 31C24.2843 31 31 24.2843 31 16C31 7.71573 24.2843 1 16 1C7.71573 1 1 7.71573 1 16C1 24.2843 7.71573 31 16 31Z" stroke="white" stroke-width="2" stroke-miterlimit="10" stroke-linecap="round"/>
</svg>
