<svg width="32" height="35" viewBox="0 0 32 35" fill="none" xmlns="http://www.w3.org/2000/svg">
<path d="M21.6817 16.9099C21.6817 17.0446 21.6817 17.1794 21.6657 17.3119C21.6015 18.1861 21.3257 19.0316 20.862 19.7754C20.3984 20.5193 19.7608 21.1392 19.0042 21.5818C18.9151 21.6366 18.8214 21.6869 18.7278 21.7326C17.9362 22.1375 17.0571 22.3412 16.1682 22.3257C15.2792 22.3101 14.4078 22.0758 13.6309 21.6435C13.5939 21.6251 13.558 21.6045 13.5235 21.5818C12.7401 21.123 12.0847 20.4745 11.6176 19.696C11.1505 18.9175 10.8867 18.034 10.8506 17.1269C10.8506 17.0561 10.8506 16.983 10.8506 16.8984C10.8506 16.8139 10.8506 16.7499 10.8506 16.67C10.8852 15.7988 11.1302 14.949 11.5646 14.1931C11.999 13.4372 12.61 12.7977 13.3453 12.3293C13.439 12.2676 13.5327 12.2105 13.6309 12.158C14.4153 11.7201 15.2966 11.4847 16.1949 11.4731C17.0932 11.4615 17.9803 11.6742 18.7757 12.0917C18.9156 12.1599 19.0514 12.2362 19.1824 12.3202C19.9306 12.7961 20.55 13.4491 20.9859 14.2213C21.4218 14.9935 21.6608 15.8612 21.6817 16.7477C21.6817 16.8002 21.6817 16.855 21.6817 16.9099Z" stroke="white" stroke-width="2" stroke-miterlimit="10"/>
<path d="M4.81207 14.504L1.78274 12.7541C1.60563 12.6519 1.45041 12.5157 1.32595 12.3535C1.20149 12.1913 1.11023 12.0061 1.0574 11.8085C1.00456 11.611 0.991189 11.405 1.01804 11.2023C1.04489 10.9995 1.11144 10.8041 1.21389 10.6271L3.10779 7.34422C3.31462 6.98761 3.65436 6.72751 4.05259 6.62089C4.45082 6.51427 4.87507 6.56981 5.23243 6.77537L8.20235 8.49336C9.44693 7.28526 10.9675 6.39912 12.6321 5.9118V2.56264C12.6315 2.35765 12.6714 2.15455 12.7494 1.96499C12.8274 1.77543 12.9421 1.60313 13.0868 1.45796C13.2316 1.3128 13.4036 1.19762 13.5929 1.11904C13.7822 1.04045 13.9852 0.999999 14.1902 1H17.9803C18.3935 1 18.7898 1.16415 19.082 1.45635C19.3742 1.74854 19.5383 2.14484 19.5383 2.55807V5.9118C21.1952 6.43124 22.7128 7.31932 23.9772 8.50935L26.769 6.89873C26.9459 6.79629 27.1414 6.72974 27.3441 6.70289C27.5468 6.67604 27.7528 6.68941 27.9504 6.74224C28.1479 6.79508 28.3331 6.88633 28.4953 7.0108C28.6576 7.13526 28.7937 7.29048 28.8959 7.46759L30.7921 10.7505C30.9982 11.1083 31.0538 11.5334 30.9467 11.9322C30.8396 12.331 30.5786 12.671 30.2209 12.8774L27.363 14.5292C27.7074 16.1724 27.691 17.8709 27.315 19.5072L30.2209 21.1864C30.5786 21.3928 30.8396 21.7328 30.9467 22.1316C31.0538 22.5304 30.9982 22.9555 30.7921 23.3133L28.8959 26.5871C28.7937 26.7642 28.6576 26.9194 28.4953 27.0439C28.3331 27.1683 28.1479 27.2596 27.9504 27.3124C27.7528 27.3653 27.5468 27.3786 27.3441 27.3518C27.1414 27.3249 26.9459 27.2584 26.769 27.1559L23.8128 25.4516C23.2018 26.0029 22.534 26.4877 21.8206 26.8978C21.0984 27.3141 20.3322 27.649 19.5361 27.8961V31.4943C19.5355 31.9071 19.371 32.3029 19.0789 32.5946C18.7868 32.8863 18.3908 33.0501 17.978 33.0501H14.1902C13.9857 33.0504 13.7831 33.0104 13.5941 32.9323C13.4051 32.8543 13.2333 32.7397 13.0886 32.5952C12.9439 32.4507 12.8291 32.2791 12.7508 32.0902C12.6724 31.9013 12.6321 31.6988 12.6321 31.4943V27.9053C10.9794 27.3906 9.46482 26.508 8.20235 25.3237L5.23243 27.044C5.05528 27.1465 4.85967 27.2131 4.65679 27.24C4.4539 27.2668 4.2477 27.2535 4.04997 27.2007C3.85225 27.1478 3.66687 27.0566 3.50442 26.9321C3.34197 26.8076 3.20564 26.6523 3.10322 26.4751L1.20932 23.1922C1.10687 23.0152 1.04032 22.8198 1.01347 22.6171C0.98662 22.4144 0.999994 22.2084 1.05283 22.0108C1.10566 21.8133 1.19692 21.6281 1.32138 21.4659C1.44584 21.3036 1.60106 21.1675 1.77817 21.0653L4.8075 19.3176C4.47276 17.7313 4.47276 16.0926 4.8075 14.5063L4.81207 14.504Z" stroke="white" stroke-width="2" stroke-miterlimit="10"/>
</svg>
