<svg width="30" height="29" viewBox="0 0 30 29" fill="none" xmlns="http://www.w3.org/2000/svg">
<path d="M14.5554 12.9125L26.5034 4M14.5554 12.9125V27M14.5554 12.9125L3.50342 4.2875" stroke="white" stroke-width="2"/>
<path d="M14.6764 16.4244C17.044 16.4244 18.9632 14.5206 18.9632 12.1721C18.9632 9.82371 17.044 7.91992 14.6764 7.91992C12.3089 7.91992 10.3896 9.82371 10.3896 12.1721C10.3896 14.5206 12.3089 16.4244 14.6764 16.4244Z" fill="white"/>
<path d="M2.81028 5.57525C4.36236 5.57525 5.62057 4.32719 5.62057 2.78763C5.62057 1.24806 4.36236 0 2.81028 0C1.25821 0 0 1.24806 0 2.78763C0 4.32719 1.25821 5.57525 2.81028 5.57525Z" fill="white"/>
<path d="M26.7649 5.57525C28.317 5.57525 29.5752 4.32719 29.5752 2.78763C29.5752 1.24806 28.317 0 26.7649 0C25.2128 0 23.9546 1.24806 23.9546 2.78763C23.9546 4.32719 25.2128 5.57525 26.7649 5.57525Z" fill="white"/>
<path d="M14.345 28.9503C15.897 28.9503 17.1552 27.7022 17.1552 26.1626C17.1552 24.6231 15.897 23.375 14.345 23.375C12.7929 23.375 11.5347 24.6231 11.5347 26.1626C11.5347 27.7022 12.7929 28.9503 14.345 28.9503Z" fill="white"/>
</svg>
