<svg id="Capa_1" enable-background="new 0 0 512 512" height="512" viewBox="0 0 512 512" width="512" xmlns="http://www.w3.org/2000/svg"><path d="m458.487 405.078c-9.135 0-17.915 2.285-25.703 6.568l-113.486-113.487c5.412-8.089 9.313-17.268 11.296-27.135h76.612c6.499 22.209 27.039 38.482 51.32 38.482 29.485 0 53.473-23.988 53.473-53.474s-23.988-53.474-53.473-53.474c-24.281 0-44.821 16.273-51.32 38.482h-76.612c-1.983-9.867-5.884-19.046-11.296-27.135l112.734-112.734c7.974 4.363 16.826 6.558 25.686 6.558 13.692 0 27.386-5.213 37.809-15.636 20.849-20.849 20.849-54.775 0-75.624-20.849-20.85-54.775-20.85-75.624 0-17.169 17.169-20.185 43.2-9.075 63.5l-112.767 112.766c-8.075-5.368-17.228-9.235-27.062-11.196v-76.758c22.189-6.512 38.443-27.041 38.443-51.308.001-29.485-23.988-53.473-53.474-53.473s-53.474 23.988-53.474 53.473c0 24.295 16.292 44.843 38.52 51.33v76.777c-9.823 1.99-18.961 5.884-27.019 11.275l-113.64-113.64c4.282-7.788 6.568-16.569 6.568-25.704 0-14.284-5.562-27.712-15.661-37.811-20.849-20.85-54.775-20.85-75.624 0-20.849 20.849-20.849 54.775 0 75.624 10.425 10.425 24.117 15.637 37.811 15.637 8.859 0 17.713-2.196 25.687-6.559l113.69 113.69c-5.347 8.044-9.207 17.155-11.175 26.947h-32.633c-6.499-22.209-27.039-38.482-51.32-38.482-29.485 0-53.473 23.988-53.473 53.474s23.988 53.474 53.473 53.474c24.281 0 44.821-16.273 51.32-38.482h32.633c1.968 9.791 5.828 18.903 11.175 26.947l-113.652 113.653c-20.299-11.109-46.33-8.092-63.497 9.076-20.849 20.849-20.849 54.775 0 75.624 10.425 10.425 24.118 15.638 37.812 15.638s27.387-5.212 37.812-15.638c17.168-17.168 20.184-43.198 9.076-63.497l113.618-113.618c8.058 5.391 17.196 9.285 27.019 11.275v35.404c-22.209 6.499-38.482 27.039-38.482 51.32 0 29.485 23.988 53.473 53.474 53.473s53.474-23.988 53.474-53.473c0-24.281-16.273-44.82-38.482-51.32v-35.363c9.835-1.961 18.987-5.828 27.062-11.196l113.537 113.537c-11.108 20.299-8.092 46.329 9.077 63.498 10.427 10.426 24.118 15.637 37.813 15.637 13.692 0 27.388-5.214 37.812-15.637 10.1-10.1 15.662-23.528 15.662-37.812s-5.563-27.713-15.662-37.812c-10.099-10.1-23.527-15.662-37.812-15.661zm.039-172.535c12.951 0 23.488 10.537 23.488 23.489s-10.537 23.489-23.488 23.489c-12.952 0-23.489-10.537-23.489-23.489.001-12.952 10.538-23.489 23.489-23.489zm-360.828 46.977c-12.951 0-23.488-10.537-23.488-23.489s10.537-23.489 23.488-23.489c12.952 0 23.489 10.537 23.489 23.489-.001 12.952-10.538 23.489-23.489 23.489zm343.407-241.849c4.579-4.579 10.595-6.869 16.609-6.869 6.015 0 12.03 2.29 16.609 6.869 9.158 9.158 9.158 24.06 0 33.218-9.158 9.157-24.059 9.156-33.216-.002-9.158-9.157-9.159-24.058-.002-33.216zm-208.625 15.802c0-12.951 10.537-23.488 23.489-23.488s23.489 10.536 23.489 23.488-10.537 23.488-23.489 23.488-23.489-10.536-23.489-23.488zm23.641 156.58c25.354 0 45.981 20.626 45.981 45.979s-20.627 45.979-45.981 45.979c-25.352 0-45.977-20.626-45.977-45.979 0-25.354 20.624-45.979 45.977-45.979zm-219.281-139.931c-9.158-9.158-9.158-24.06 0-33.218 4.579-4.579 10.595-6.869 16.609-6.869s12.03 2.29 16.609 6.869c4.435 4.436 6.879 10.334 6.879 16.609 0 6.274-2.443 12.172-6.88 16.609-9.159 9.157-24.059 9.156-33.217 0zm33.257 404.999c-9.158 9.158-24.061 9.158-33.218 0-9.158-9.158-9.158-24.06 0-33.218 4.579-4.578 10.592-6.867 16.606-6.867s12.031 2.29 16.61 6.869c9.158 9.157 9.159 24.059.002 33.216zm209.398-57.915c0 12.951-10.537 23.488-23.489 23.488s-23.489-10.536-23.489-23.488 10.537-23.489 23.489-23.489 23.489 10.537 23.489 23.489zm195.602 57.954c-9.158 9.158-24.061 9.158-33.218 0s-9.157-24.059.001-33.217c4.58-4.579 10.595-6.869 16.609-6.869 6.015 0 12.029 2.289 16.608 6.868 4.436 4.437 6.88 10.335 6.88 16.61-.001 6.273-2.444 12.171-6.88 16.608z"/></svg>