<svg id="Layer_1" enable-background="new 0 0 512 512" height="512" viewBox="0 0 512 512" width="512" xmlns="http://www.w3.org/2000/svg"><path d="m502.6 194.7c-12.5 12.5-32.8 12.5-45.3 0-111.2-111.2-291.5-111.2-402.7 0-12.5 12.4-32.8 12.4-45.3-.2-12.3-12.5-12.3-32.6.1-45.1 136-136.2 356.7-136.4 492.9-.4.1.1.2.2.4.4 12.3 12.5 12.2 32.7-.1 45.3zm-394.2 53.8c-12.5 12.5-12.5 32.8 0 45.3s32.8 12.5 45.3 0c56.4-56.4 148.2-56.4 204.7 0 12.5 12.5 32.8 12.5 45.3 0s12.5-32.8 0-45.3c-81.5-81.4-213.9-81.4-295.3 0zm196.1 99c26.8 26.8 26.8 70.3 0 97.1s-70.3 26.8-97.1 0-26.8-70.3 0-97.1c26.5-26.8 69.6-27.1 96.4-.6.3.2.5.4.7.6z"/></svg>