<svg width="83" height="60" viewBox="0 0 83 60" fill="none" xmlns="http://www.w3.org/2000/svg">
<path d="M61.4559 32.2009L57.6584 35.9983C57.1159 36.5408 56.2376 36.5408 55.6951 35.9983L51.4069 31.6843C50.8644 31.1418 50.8644 30.2634 51.4069 29.721L55.721 25.4069C56.2634 24.8644 57.1418 24.8644 57.6843 25.4069L61.4817 29.2043C62.0242 29.7468 62.9025 29.7468 63.445 29.2043L67.2166 25.4069C67.7591 24.8644 68.6374 24.8644 69.1799 25.4069L73.4681 29.721C74.0106 30.2634 74.0106 31.1418 73.4681 31.6843L69.1799 35.9983C68.6374 36.5408 67.7591 36.5408 67.2166 35.9983L63.4191 32.2009C62.8767 31.6584 61.9983 31.6584 61.4559 32.2009Z" fill="white"/>
<path fill-rule="evenodd" clip-rule="evenodd" d="M7 1.5H76C79.0376 1.5 81.5 3.96243 81.5 7V7.9431H11.5V9.6431H81.5V53C81.5 56.0376 79.0376 58.5 76 58.5H7C3.96243 58.5 1.5 56.0376 1.5 53V7C1.5 3.96243 3.96243 1.5 7 1.5ZM0 7C0 3.13401 3.13401 0 7 0H76C79.866 0 83 3.13401 83 7V53C83 56.866 79.866 60 76 60H7C3.13401 60 0 56.866 0 53V7Z" fill="white"/>
</svg>
