<svg width="130" height="157" viewBox="0 0 130 157" fill="none" xmlns="http://www.w3.org/2000/svg">
<path d="M23.2069 155.05L106.956 155.05C118.548 155.05 127.946 145.654 127.946 134.063L127.946 22.9876C127.946 11.3965 118.548 2.00001 106.956 2.00001L23.2069 2.00001C11.6146 2.00001 2.21724 11.3965 2.21724 22.9876L2.21723 134.063C2.21722 145.654 11.6146 155.05 23.2069 155.05Z" stroke="white" stroke-width="3" stroke-linecap="round" stroke-linejoin="round"/>
<path d="M73.2827 82.8724C71.7241 81.3137 71.7241 78.716 73.2827 77.1574L82.7643 67.6758C84.323 66.1172 86.9207 66.1172 88.4793 67.6758L97.831 77.1574C99.3896 78.716 99.3896 81.3137 97.831 82.8724L88.4793 92.2241C86.9207 93.7827 84.323 93.7827 82.7643 92.2241L73.2827 82.8724Z" stroke="white" stroke-width="3" stroke-miterlimit="10"/>
<path d="M73.2827 37.8023C71.7241 36.2437 71.7241 33.646 73.2827 32.0873L82.7643 22.7356C84.323 21.177 86.9207 21.177 88.4793 22.7356L97.831 32.0873C99.3896 33.646 99.3896 36.2437 97.831 37.8023L88.4793 47.2839C86.9207 48.8425 84.323 48.8425 82.7643 47.2839L73.2827 37.8023Z" stroke="white" stroke-width="3" stroke-miterlimit="10"/>
<path d="M73.2827 127.813C71.7241 126.254 71.7241 123.656 73.2827 122.098L82.7643 112.616C84.323 111.057 86.9207 111.057 88.4793 112.616L97.831 121.968C99.3896 123.526 99.3896 126.124 97.831 127.683L88.4793 137.164C86.9207 138.723 84.323 138.723 82.7643 137.164L73.2827 127.813Z" stroke="white" stroke-width="3" stroke-miterlimit="10"/>
<path d="M31.2 60.5322L46.5264 49.4919" stroke="white" stroke-width="3" stroke-miterlimit="10"/>
<path d="M46.5264 109.499L31.2 98.5885" stroke="white" stroke-width="3" stroke-miterlimit="10"/>
<path d="M31.2 79.4954H59.5149" stroke="white" stroke-width="3" stroke-miterlimit="10"/>
</svg>
