<?xml version="1.0"?>
<svg xmlns="http://www.w3.org/2000/svg" xmlns:xlink="http://www.w3.org/1999/xlink" xmlns:svgjs="http://svgjs.com/svgjs" version="1.1" width="512" height="512" x="0" y="0" viewBox="0 0 475.439 475.439" style="enable-background:new 0 0 512 512" xml:space="preserve"><g><g xmlns="http://www.w3.org/2000/svg"><g><path d="m448.776 475.308h-105.595c-14.58 0-26.399-11.82-26.399-26.399 0-14.58 11.82-26.398 26.399-26.398h105.595c14.58 0 26.398 11.818 26.398 26.398.001 14.579-11.818 26.399-26.398 26.399zm-211.189 0c-14.58 0-26.399-11.82-26.399-26.399v-105.596c0-14.58 11.819-26.399 26.399-26.399h52.798c14.58 0 26.398 11.82 26.398 26.399 0 14.58-11.818 26.398-26.398 26.398h-26.399v79.197c-.001 14.58-11.819 26.4-26.399 26.4zm-131.992 0h-52.798c-14.1 0-27.357-5.492-37.331-15.463-9.974-9.973-15.466-23.231-15.466-37.336v-52.796c0-14.105 5.492-27.364 15.465-37.334 9.975-9.972 23.232-15.464 37.332-15.464h52.798c14.1 0 27.358 5.492 37.331 15.463 9.974 9.972 15.466 23.231 15.466 37.336v52.796c0 14.105-5.492 27.364-15.465 37.334-9.975 9.971-23.232 15.464-37.332 15.464zm-52.798-105.597.001 52.798-.001.001h52.798l-.001-52.798zm395.979 0h-52.798c-14.58 0-26.399-11.818-26.399-26.398s11.82-26.399 26.399-26.399h52.798c14.58 0 26.398 11.82 26.398 26.399.001 14.58-11.818 26.398-26.398 26.398zm.264-105.593h-.263c-14.58 0-26.399-11.82-26.399-26.399s11.82-26.399 26.399-26.399h.263c14.58 0 26.399 11.819 26.399 26.399s-11.819 26.399-26.399 26.399zm-105.594 0h-105.859c-14.58 0-26.399-11.82-26.399-26.399v-79.196c0-14.58 11.819-26.399 26.399-26.399s26.398 11.819 26.398 26.399v52.797h79.46c14.58 0 26.399 11.819 26.399 26.399s-11.818 26.399-26.398 26.399zm-211.453 0h-105.594c-14.58 0-26.399-11.819-26.399-26.399s11.819-26.399 26.399-26.399h105.594c14.579 0 26.399 11.819 26.399 26.399s-11.82 26.399-26.399 26.399zm290.384-105.595h-52.796c-14.105 0-27.363-5.492-37.334-15.465-9.972-9.975-15.464-23.232-15.464-37.332v-52.797c0-14.1 5.492-27.357 15.463-37.331 9.973-9.974 23.231-15.466 37.336-15.466h52.796c14.104 0 27.364 5.492 37.334 15.465 9.972 9.975 15.463 23.232 15.463 37.332v52.798c0 14.1-5.491 27.357-15.462 37.331-9.972 9.973-23.232 15.465-37.336 15.465zm0-105.594-52.796.001-.001 52.797.001-.001h52.796zm-316.782 105.594h-52.798c-14.102 0-27.359-5.492-37.332-15.462-9.973-9.975-15.465-23.233-15.465-37.335v-52.797c0-14.102 5.492-27.359 15.462-37.332 9.975-9.974 23.233-15.465 37.335-15.465h52.798c14.102 0 27.359 5.492 37.332 15.462 9.973 9.975 15.465 23.233 15.465 37.334v52.798c0 14.102-5.492 27.359-15.462 37.332-9.976 9.974-23.234 15.465-37.335 15.465zm-52.797-52.797h.012zm-.001 0h52.798l-.001-52.797-52.797.001zm184.79-26.399c-14.58 0-26.399-11.819-26.399-26.399v-26.397c0-14.58 11.819-26.399 26.399-26.399s26.398 11.819 26.398 26.399v26.398c0 14.579-11.818 26.398-26.398 26.398z" fill="#000000" data-original="#000000"/></g></g></g></svg>
