<?xml version="1.0"?>
<svg xmlns="http://www.w3.org/2000/svg" xmlns:xlink="http://www.w3.org/1999/xlink" xmlns:svgjs="http://svgjs.com/svgjs" version="1.1" width="512" height="512" x="0" y="0" viewBox="0 0 512 512" style="enable-background:new 0 0 512 512" xml:space="preserve" class=""><g transform="matrix(1.28,0,0,1.28,-71.68000213623026,-71.68)"><g xmlns="http://www.w3.org/2000/svg"><g><g><g><g><path d="m435.854 175.032c-8.284 0-15-6.716-15-15v-56.908c0-6.605-5.373-11.979-11.977-11.979h-56.908c-8.284 0-15-6.716-15-15s6.716-15 15-15h56.908c23.146 0 41.977 18.832 41.977 41.979v56.908c0 8.284-6.716 15-15 15z" fill="#000000" data-original="#000000" class=""/></g></g><g><g><path d="m76.146 175.032c-8.284 0-15-6.716-15-15v-56.908c0-23.147 18.831-41.979 41.979-41.979h56.906c8.284 0 15 6.716 15 15s-6.716 15-15 15h-56.906c-6.605 0-11.979 5.374-11.979 11.979v56.908c0 8.284-6.715 15-15 15z" fill="#000000" data-original="#000000" class=""/></g></g><g><g><path d="m160.031 450.855h-56.906c-23.147 0-41.979-18.831-41.979-41.977v-56.904c0-8.284 6.716-15 15-15s15 6.716 15 15v56.904c0 6.604 5.373 11.977 11.979 11.977h56.906c8.284 0 15 6.716 15 15s-6.716 15-15 15z" fill="#000000" data-original="#000000" class=""/></g></g><g><g><path d="m408.877 450.855h-56.908c-8.284 0-15-6.716-15-15s6.716-15 15-15h56.908c6.604 0 11.977-5.373 11.977-11.977v-56.904c0-8.284 6.716-15 15-15s15 6.716 15 15v56.904c0 23.147-18.832 41.977-41.977 41.977z" fill="#000000" data-original="#000000" class=""/></g></g></g><g><g><g><path d="m209.068 233.057h-56.975c-13.23 0-23.994-10.762-23.994-23.991v-56.972c0-13.23 10.764-23.994 23.994-23.994h56.975c13.23 0 23.994 10.764 23.994 23.994v56.972c.001 13.228-10.763 23.991-23.994 23.991zm-50.968-30h44.963v-44.957h-44.963z" fill="#000000" data-original="#000000" class=""/></g></g><g><g><path d="m209.068 383.898h-56.975c-13.23 0-23.994-10.763-23.994-23.993v-56.97c0-13.23 10.764-23.993 23.994-23.993h56.975c13.23 0 23.994 10.763 23.994 23.993v56.97c.001 13.23-10.763 23.993-23.994 23.993zm-50.968-30h44.963v-44.956h-44.963z" fill="#000000" data-original="#000000" class=""/></g></g><g><g><path d="m359.906 383.9h-56.971c-13.23 0-23.994-10.763-23.994-23.993v-56.97c0-13.23 10.764-23.993 23.994-23.993h56.971c13.23 0 23.994 10.763 23.994 23.993v56.97c0 13.23-10.763 23.993-23.994 23.993zm-50.965-30h44.959v-44.956h-44.959z" fill="#000000" data-original="#000000" class=""/></g></g><g><g><path d="m359.906 233.057h-56.971c-13.23 0-23.994-10.762-23.994-23.991v-56.972c0-13.23 10.764-23.994 23.994-23.994h56.971c13.23 0 23.994 10.764 23.994 23.994v56.972c0 13.228-10.763 23.991-23.994 23.991zm-50.965-30h44.959v-44.957h-44.959z" fill="#000000" data-original="#000000" class=""/></g></g></g></g></g></g></svg>
