<svg width="42" height="42" viewBox="0 0 42 42" fill="none" xmlns="http://www.w3.org/2000/svg">
<circle cx="21" cy="21" r="19" stroke="white" stroke-width="4"/>
<path d="M18.631 14C19.6067 14 20.0946 14.4123 20.0946 15.2369C20.0946 15.819 19.739 16.3445 19.0279 16.8134C17.7214 17.7189 17.0682 18.6325 17.0682 19.5541C17.0682 20.1039 17.4486 20.783 18.2093 21.5914C18.9866 22.3837 19.3752 23.2245 19.3752 24.1138C19.3752 25.0031 19.0941 25.7065 18.5318 26.2239C17.986 26.7413 17.2501 27 16.324 27C15.4145 27 14.6289 26.6039 13.9674 25.8116C13.3225 25.0193 13 24.1057 13 23.0709C13 20.2575 13.769 17.9372 15.307 16.1101C16.0346 15.2369 16.6961 14.671 17.2915 14.4123C17.9034 14.1374 18.3499 14 18.631 14ZM27.5364 14C28.5121 14 29 14.4123 29 15.2369C29 15.819 28.6444 16.3445 27.9333 16.8134C26.6269 17.7189 25.9736 18.6325 25.9736 19.5541C25.9736 20.1039 26.354 20.783 27.1147 21.5914C27.892 22.3837 28.2806 23.2245 28.2806 24.1138C28.2806 25.0031 27.9995 25.7065 27.4372 26.2239C26.8915 26.7413 26.1556 27 25.2295 27C24.3199 27 23.5344 26.6039 22.8729 25.8116C22.2279 25.0193 21.9054 24.1057 21.9054 23.0709C21.9054 20.2575 22.6744 17.9372 24.2124 16.1101C24.9401 15.2369 25.6016 14.671 26.1969 14.4123C26.8088 14.1374 27.2553 14 27.5364 14Z" fill="white"/>
</svg>
