<svg width="52" height="52" viewBox="0 0 52 52" fill="none" xmlns="http://www.w3.org/2000/svg">
<path d="M26 51C39.8071 51 51 39.8071 51 26C51 12.1929 39.8071 1 26 1C12.1929 1 1 12.1929 1 26C1 39.8071 12.1929 51 26 51Z" stroke="white" stroke-width="2" stroke-miterlimit="10" stroke-linecap="round"/>
<path d="M13.7002 19.3767C16.5022 15.6286 20.9782 13.1904 26 13.1904C31.0219 13.1904 35.5343 15.6286 38.2999 19.3767" stroke="white" stroke-width="2" stroke-miterlimit="10" stroke-linecap="round"/>
<path d="M14.5732 34.042C17.3753 37.1715 21.451 39.173 25.9997 39.173C30.5485 39.173 34.6242 37.2079 37.4626 34.042" stroke="white" stroke-width="2" stroke-miterlimit="10" stroke-linecap="round"/>
<path d="M38.8094 31.2764L31.1675 32.2225L41.1384 38.5908L38.8094 31.2764Z" fill="white"/>
<path d="M11.4076 23.0527L19.0495 22.1065L9.07861 15.7383L11.4076 23.0527Z" fill="white"/>
</svg>
