<svg width="66" height="57" viewBox="0 0 66 57" fill="none" xmlns="http://www.w3.org/2000/svg">
<path d="M10.7915 27.4667C11.0463 21.0211 13.722 14.7018 18.6911 9.77273C29.139 -0.590909 46.2124 -0.590909 56.6602 9.77273C67.1081 20.1364 67.1081 37.0721 56.6602 47.4357C46.2124 57.7993 29.139 57.7993 18.6911 47.4357" stroke="white" stroke-width="3" stroke-miterlimit="10"/>
<path d="M2 18.2405L10.9189 30.1207L22.2587 20.5154" stroke="white" stroke-width="3" stroke-miterlimit="10"/>
<path d="M37.6755 34.1652C40.7717 34.1652 43.2817 31.6754 43.2817 28.6042C43.2817 25.5329 40.7717 23.0432 37.6755 23.0432C34.5793 23.0432 32.0693 25.5329 32.0693 28.6042C32.0693 31.6754 34.5793 34.1652 37.6755 34.1652Z" fill="white"/>
</svg>
