<svg width="139" height="119" viewBox="0 0 139 119" fill="none" xmlns="http://www.w3.org/2000/svg">
<path fill-rule="evenodd" clip-rule="evenodd" d="M118.884 19.8947C96.847 -1.96489 60.8224 -1.96489 38.7851 19.8947C28.2947 30.3005 22.6599 43.6241 22.1231 57.2006L19.1255 57.0821C19.6923 42.7458 25.6443 28.704 36.6724 17.7648C59.8793 -5.25493 97.7901 -5.25493 120.997 17.7648C144.211 40.7912 144.211 78.4172 120.997 101.444C97.7901 124.463 59.8793 124.463 36.6724 101.444L38.7851 99.3138C60.8224 121.173 96.847 121.173 118.884 99.3138C140.915 77.4609 140.915 41.7476 118.884 19.8947Z" fill="white"/>
<path fill-rule="evenodd" clip-rule="evenodd" d="M0.38916 34.0652L2.78831 32.264L21.1447 56.7153L44.4839 36.9458L46.423 39.235L20.6558 61.0609L0.38916 34.0652Z" fill="white"/>
<path d="M78.835 71.6449C85.5389 71.6449 90.9736 66.2541 90.9736 59.6041C90.9736 52.9542 85.5389 47.5634 78.835 47.5634C72.131 47.5634 66.6963 52.9542 66.6963 59.6041C66.6963 66.2541 72.131 71.6449 78.835 71.6449Z" fill="white"/>
</svg>
