<svg width="83" height="72" viewBox="0 0 83 72" fill="none" xmlns="http://www.w3.org/2000/svg">
<path fill-rule="evenodd" clip-rule="evenodd" d="M71.2259 12.3466C58.067 -0.706218 36.5559 -0.706218 23.3969 12.3466C17.1329 18.5602 13.7682 26.516 13.4477 34.6228L11.6577 34.552C11.9961 25.9915 15.5503 17.6068 22.1354 11.0748C35.9927 -2.67077 58.6301 -2.67077 72.4874 11.0748C86.3488 24.8244 86.3488 47.2917 72.4874 61.0413C58.6301 74.7869 35.9927 74.7869 22.1354 61.0413L23.3969 59.7695C36.5559 72.8223 58.067 72.8223 71.2259 59.7695C84.3808 46.7207 84.3808 25.3955 71.2259 12.3466Z" fill="white"/>
<path fill-rule="evenodd" clip-rule="evenodd" d="M0.469727 20.8079L1.90232 19.7324L12.8633 34.3328L26.7997 22.528L27.9575 23.8949L12.5714 36.9277L0.469727 20.8079Z" fill="white"/>
<path d="M47.3113 43.2488C51.3144 43.2488 54.5595 40.0298 54.5595 36.059C54.5595 32.0881 51.3144 28.8691 47.3113 28.8691C43.3081 28.8691 40.063 32.0881 40.063 36.059C40.063 40.0298 43.3081 43.2488 47.3113 43.2488Z" fill="white"/>
</svg>
