<svg width="100" height="81" viewBox="0 0 100 81" fill="none" xmlns="http://www.w3.org/2000/svg">
<path d="M50.0584 80.0001C55.7669 80.0001 60.3946 75.3724 60.3946 69.6639C60.3946 63.9553 55.7669 59.3276 50.0584 59.3276C44.3499 59.3276 39.7222 63.9553 39.7222 69.6639C39.7222 75.3724 44.3499 80.0001 50.0584 80.0001Z" stroke="white" stroke-width="2" stroke-miterlimit="10" stroke-linecap="round" stroke-linejoin="round"/>
<path d="M1.54834 22.3287C13.8813 9.76075 31.0301 1.89111 50.0582 1.89111C69.0275 1.89111 86.1175 9.64329 98.4505 22.2112" stroke="white" stroke-width="2" stroke-miterlimit="10" stroke-linecap="round" stroke-linejoin="round"/>
<path d="M82.359 40.1822C74.6069 32.0777 62.9199 26.9683 49.8821 26.9683C36.8444 26.9095 25.2161 32.0189 17.4052 40.0648C17.3465 40.1235 17.2877 40.1822 17.229 40.2409" stroke="white" stroke-width="2" stroke-miterlimit="10" stroke-linecap="round" stroke-linejoin="round"/>
<path d="M26.4497 49.4613C31.6766 43.0599 40.1922 38.8901 49.8237 38.8901C59.7488 38.8901 68.4407 43.2948 73.6088 49.9311" stroke="white" stroke-width="2" stroke-miterlimit="10" stroke-linecap="round" stroke-linejoin="round"/>
<path d="M8.5957 30.1983C18.9319 20.6256 33.6141 14.6353 49.8819 14.6353C66.2085 14.6353 80.9493 20.6843 91.2268 30.3158" stroke="white" stroke-width="2" stroke-miterlimit="10" stroke-linecap="round" stroke-linejoin="round"/>
</svg>
