<svg width="40" height="36" viewBox="0 0 40 36" fill="none" xmlns="http://www.w3.org/2000/svg">
<path d="M30 35.1651C32 34.0451 32.8 31.0851 32.16 26.8451C32.08 26.1251 31.92 25.3251 31.68 24.6051C36.72 23.1651 40 20.6851 40 17.8851C40 15.0851 36.72 12.6051 31.68 11.1651C31.84 10.3651 32 9.64511 32.16 8.92511C32.8 4.68511 32 1.72511 30 0.525107C27.6 -0.914893 23.84 0.685106 20 4.36511C16.16 0.685106 12.4 -0.834894 10 0.525106C8.4 1.40511 7.6 3.40511 7.6 6.12511C7.6 6.92511 7.68 7.88511 7.84 8.84511C7.92 9.56511 8.08 10.3651 8.32 11.0851C3.28 12.6051 -6.55894e-07 15.0051 -7.78286e-07 17.8051C-9.00678e-07 20.6051 3.28 23.0851 8.32 24.5251C8.16 25.3251 8 26.0451 7.84 26.7651C7.68 27.7251 7.6 28.6051 7.6 29.4851C7.6 32.2051 8.4 34.2051 10 35.0851C12.4 36.5251 16.16 34.9251 20 31.2451C23.84 35.0051 27.6 36.6051 30 35.1651ZM30.56 27.0851C31.12 30.5251 30.56 33.0051 29.2 33.8051C27.52 34.7651 24.48 33.4851 21.12 30.2051C22.32 28.9251 23.52 27.4851 24.64 25.8851C26.64 25.7251 28.48 25.4051 30.16 25.0051C30.32 25.7251 30.48 26.4451 30.56 27.0851ZM14.24 21.1651C13.6 20.0451 13.04 18.9251 12.48 17.8051C13.04 16.6851 13.6 15.5651 14.24 14.4451C14.88 13.3251 15.6 12.2851 16.24 11.2451C17.44 11.2451 18.72 11.2451 20 11.2451C21.28 11.2451 22.56 11.3251 23.76 11.4051C24.4 12.3651 25.12 13.4851 25.76 14.6051C26.4 15.7251 26.96 16.8451 27.52 17.9651C26.96 19.0851 26.4 20.2051 25.76 21.3251C25.12 22.4451 24.4 23.4851 23.76 24.5251C22.56 24.6051 21.28 24.6851 20 24.6851C18.72 24.6851 17.44 24.6051 16.24 24.5251C15.52 23.4051 14.88 22.3651 14.24 21.1651ZM14.16 24.2051C12.72 24.0451 11.44 23.8051 10.24 23.4851C10.64 22.2851 11.04 21.0051 11.6 19.7251C12 20.4451 12.4 21.2451 12.8 21.9651C13.28 22.7651 13.76 23.4851 14.16 24.2051ZM11.6 15.9651C11.04 14.6851 10.64 13.4051 10.24 12.2051C11.44 11.8851 12.72 11.7251 14.16 11.4851C13.68 12.2051 13.28 12.9251 12.8 13.6451C12.4 14.5251 12 15.2451 11.6 15.9651ZM17.44 9.64511C18.32 8.52511 19.12 7.48511 20 6.60511C20.88 7.48511 21.68 8.52511 22.56 9.64511C21.76 9.64511 20.88 9.64511 20 9.64511C19.12 9.64511 18.24 9.64511 17.44 9.64511ZM25.84 11.5651C27.28 11.7251 28.56 11.9651 29.76 12.2851C29.36 13.4851 28.96 14.7651 28.4 16.0451C28 15.3251 27.6 14.5251 27.2 13.8051C26.72 13.0051 26.24 12.2851 25.84 11.5651ZM28.4 19.7251C28.96 21.0051 29.36 22.2851 29.76 23.4851C28.56 23.8051 27.28 23.9651 25.84 24.2051C26.32 23.4851 26.72 22.7651 27.2 22.0451C27.6 21.2451 28 20.5251 28.4 19.7251ZM22.56 26.0451C21.68 27.1651 20.88 28.2051 20 29.0851C19.12 28.2051 18.32 27.1651 17.44 26.0451C18.24 26.1251 19.12 26.1251 20 26.1251C20.88 26.1251 21.76 26.1251 22.56 26.0451ZM38.4 17.8851C38.4 19.8051 35.76 21.8051 31.28 23.0851C30.8 21.4051 30.08 19.6451 29.28 17.8851C30.08 16.1251 30.8 14.3651 31.28 12.6851C35.76 13.9651 38.4 15.9651 38.4 17.8851ZM29.2 1.96511C30.24 2.52511 30.8 4.04511 30.8 6.20511C30.8 6.92511 30.72 7.80511 30.56 8.68511C30.48 9.32511 30.32 10.0451 30.16 10.7651C28.48 10.3651 26.64 10.0451 24.64 9.88511C23.52 8.28511 22.32 6.84511 21.12 5.56511C24.48 2.28511 27.52 1.00511 29.2 1.96511ZM9.44 8.60511C8.88 5.16511 9.44 2.68511 10.8 1.88511C12.48 0.925106 15.52 2.20511 18.88 5.48511C17.68 6.76511 16.48 8.20511 15.36 9.80511C13.36 9.96511 11.52 10.2851 9.84 10.6851C9.68 10.0451 9.52 9.32511 9.44 8.60511ZM1.6 17.8851C1.6 15.9651 4.24 13.9651 8.72 12.6851C9.2 14.3651 9.92 16.1251 10.72 17.8851C9.92 19.6451 9.2 21.4051 8.72 23.0851C4.24 21.8051 1.6 19.8051 1.6 17.8851ZM10.8 33.8051C9.36 33.0051 8.88 30.5251 9.44 27.0851C9.52 26.4451 9.68 25.7251 9.84 25.0051C11.52 25.4051 13.36 25.7251 15.36 25.8851C16.48 27.4851 17.68 28.9251 18.88 30.2051C15.52 33.4851 12.48 34.7651 10.8 33.8051Z" fill="white"/>
<path d="M24.1602 17.8851C24.1602 15.6451 22.3202 13.7251 20.0002 13.7251C17.7602 13.7251 15.8402 15.5651 15.8402 17.8851C15.8402 20.1251 17.6802 22.0451 20.0002 22.0451C22.3202 21.9651 24.1602 20.1251 24.1602 17.8851Z" fill="white"/>
</svg>
