<svg id="Layer_1" enable-background="new 0 0 512 512" height="512" viewBox="0 0 512 512" width="512" xmlns="http://www.w3.org/2000/svg"><g><path d="m92.69 216c6.23 6.24 16.39 6.24 22.62 0l20.69-20.69c6.24-6.23 6.24-16.39 0-22.62l-20.69-20.69h284.69c26.47 0 48 21.53 48 48 0 13.23 10.77 24 24 24h16c13.23 0 24-10.77 24-24 0-61.76-50.24-112-112-112h-284.69l20.69-20.69c6.24-6.23 6.24-16.39 0-22.62l-20.69-20.69c-6.23-6.24-16.39-6.24-22.62 0l-90.35 90.34c-3.12 3.13-3.12 8.19 0 11.32z"/><path d="m419.31 296c-6.23-6.24-16.38-6.24-22.62 0l-20.69 20.69c-6.252 6.252-6.262 16.358 0 22.62l20.69 20.69h-284.69c-26.47 0-48-21.53-48-48 0-13.23-10.77-24-24-24h-16c-13.23 0-24 10.77-24 24 0 61.76 50.24 112 112 112h284.69l-20.69 20.69c-6.252 6.252-6.262 16.358 0 22.62l20.69 20.69c6.241 6.241 16.38 6.24 22.62 0l90.35-90.34c3.12-3.13 3.12-8.19 0-11.32z"/></g></svg>