<svg width="73" height="36" viewBox="0 0 73 36" fill="none" xmlns="http://www.w3.org/2000/svg">
<path d="M33.0096 22.6399L21.0209 34.6221C19.3082 36.3339 16.5354 36.3339 14.8227 34.6221L1.2845 21.0097C-0.428166 19.2979 -0.428166 16.5265 1.2845 14.8148L14.9043 1.28381C16.6169 -0.427937 19.3898 -0.427937 21.1025 1.28381L33.0911 13.266C34.8038 14.9778 37.5767 14.9778 39.2893 13.266L51.1964 1.28381C52.9091 -0.427937 55.682 -0.427937 57.3946 1.28381L70.9328 14.8963C72.6455 16.608 72.6455 19.3794 70.9328 21.0912L57.3946 34.6221C55.682 36.3339 52.9091 36.3339 51.1964 34.6221L39.2078 22.6399C37.4951 20.9281 34.7222 20.9281 33.0096 22.6399Z" fill="white"/>
</svg>
