<?xml version="1.0"?>
<svg xmlns="http://www.w3.org/2000/svg" xmlns:xlink="http://www.w3.org/1999/xlink" xmlns:svgjs="http://svgjs.com/svgjs" version="1.1" width="512" height="512" x="0" y="0" viewBox="0 0 32 32" style="enable-background:new 0 0 512 512" xml:space="preserve" class=""><g><g xmlns="http://www.w3.org/2000/svg" transform="translate(0 -336)"><g transform="translate(0 250.864)"><path d="m4.856 94.139 16.408-4.396c1.601-.429 3.246.521 3.674 2.121l.609 2.272h1.453c1.657 0 3 1.343 3 3v3h-9c-.53 0-1.039.211-1.414.586s-.586.884-.586 1.414v3c0 .53.211 1.039.586 1.414s.884.586 1.414.586h9v3c0 1.657-1.343 3-3 3-4.843 0-17.157 0-22 0-1.657 0-3-1.343-3-3 0-3.271 0-9.729 0-13 0-1.608 1.266-2.921 2.856-2.997zm25.144 7.997v3h-9v-3zm-6.523-8-.47-1.754c-.143-.534-.692-.85-1.225-.707l-9.186 2.461z" fill="#b8b8b8" data-original="#000000" class=""/></g></g></g></svg>
